<?xml version="1.0" encoding="UTF-8" standalone="no"?>
<svg xmlns:dc="http://purl.org/dc/elements/1.1/" xmlns:cc="http://creativecommons.org/ns#" xmlns:rdf="http://www.w3.org/1999/02/22-rdf-syntax-ns#" xmlns:svg="http://www.w3.org/2000/svg" xmlns="http://www.w3.org/2000/svg" xmlns:sodipodi="http://sodipodi.sourceforge.net/DTD/sodipodi-0.dtd" xmlns:inkscape="http://www.inkscape.org/namespaces/inkscape" inkscape:version="1.0rc1 (09960d6f05, 2020-04-09)" sodipodi:docname="emoji_u1f4cb_wip.svg" id="svg1053" version="1.1" viewBox="0 0 128 128" enable-background="new 0 0 128 128">
  <metadata id="metadata1059">
    <rdf:RDF>
      <cc:Work rdf:about="">
        <dc:format>image/svg+xml</dc:format>
        <dc:type rdf:resource="http://purl.org/dc/dcmitype/StillImage" />
        <dc:title />
      </cc:Work>
    </rdf:RDF>
  </metadata>
  <defs id="defs1057">
    <inkscape:path-effect effect="powermask" id="path-effect867" is_visible="true" lpeversion="1" uri="false" invert="false" hide_mask="false" background="false" background_color="#ffffffff" />
    <inkscape:path-effect effect="powermask" id="path-effect865" is_visible="true" lpeversion="1" uri="false" invert="false" hide_mask="false" background="false" background_color="#ffffffff" />
    <inkscape:path-effect effect="powermask" id="path-effect863" is_visible="true" lpeversion="1" uri="false" invert="false" hide_mask="false" background="false" background_color="#ffffffff" />
    <inkscape:path-effect effect="powermask" id="path-effect861" is_visible="true" lpeversion="1" uri="false" invert="false" hide_mask="false" background="false" background_color="#ffffffff" />
    <inkscape:path-effect effect="powermask" id="path-effect859" is_visible="true" lpeversion="1" uri="false" invert="false" hide_mask="false" background="false" background_color="#ffffffff" />
  </defs>
  <sodipodi:namedview inkscape:object-paths="true" inkscape:snap-intersection-paths="true" inkscape:snap-text-baseline="true" inkscape:snap-smooth-nodes="true" inkscape:snap-midpoints="true" inkscape:snap-center="true" inkscape:snap-object-midpoints="true" inkscape:current-layer="svg1053" inkscape:window-maximized="1" inkscape:window-y="-8" inkscape:window-x="1912" inkscape:cy="68.44574" inkscape:cx="18.11463" inkscape:zoom="4" showgrid="true" id="namedview1055" inkscape:window-height="1027" inkscape:window-width="1920" inkscape:pageshadow="2" inkscape:pageopacity="0" guidetolerance="10" gridtolerance="10" objecttolerance="10" borderopacity="1" bordercolor="#666666" pagecolor="#ffffff" inkscape:document-rotation="0">
    <inkscape:grid id="grid1061" type="xygrid" />
  </sodipodi:namedview>
  <linearGradient gradientUnits="userSpaceOnUse" y2="124" y1="8.5" x2="64" x1="64" id="c">
    <stop id="stop1014" offset=".0065487" stop-color="#D1A773" />
    <stop id="stop1016" offset=".9989" stop-color="#916843" />
  </linearGradient>
  <path sodipodi:nodetypes="ssssssscs" inkscape:connector-curvature="0" id="path1019" fill="url(#c)" d="m 25,16 h 78 a 4,4 0 0 1 4,4
v 102 a 4,4 0 0 1 -4,4
h -78 a 4,4 0 0 1 -4,-4
v -102 a 4,4 0 0 1 4,-4" />
  <linearGradient gradientUnits="userSpaceOnUse" y2="115" y1="19" x2="64" x1="64" id="b">
    <stop id="stop1021" offset="0" stop-color="#fff" />
    <stop id="stop1023" offset="1" stop-color="#C8C9CA" />
  </linearGradient>
  <rect fill="url(#b)" y="22" x="27" height="96" width="74" id="rect2518" />
  <linearGradient gradientUnits="userSpaceOnUse" y2="28" y1="0" x2="64" x1="64" id="a">
    <stop style="stop-color:#b3b3b3" id="stop1028" offset="0" stop-color="#fff" />
    <stop style="stop-color:#ececec" id="stop1030" offset=".8627" stop-color="#C8C9CA" />
    <stop id="stop1032" offset="1" stop-color="#757575" />
  </linearGradient>
  <path id="path1035" fill="url(#a)" d="m 36,12 h 18 a 10,10 0 0 1 20,0 h 18 v 16 h -56 z" mask="url(#circleMask)" />
  <g id="g1039" opacity="0.2">
    <path inkscape:connector-curvature="0" d="m 92,16 v 3 h 11 a 1,1 0 0 1 1,1
v 102 a 1,1 0 0 1 -1,1
h -78 a 1,1 0 0 1 -1,-1
v -102 a 1,1 0 0 1 1,-1
h 11 v -3 h -11 a 4,4 0 0 0 -4,4
v 102 a 4,4 0 0 0 4,4
h 78 a 4,4 0 0 0 4,-4
v -102 a 4,4 0 0 0 -4,-4
h -11" fill="#424242" id="path1037-2" />
    <path inkscape:connector-curvature="0" fill="#424242" id="path1037" d="m 36,12 v 7 a 3,3 0 0 0 3,-3 v -1 h 15 a 3,3 0 0 0 3,-3 a 7,7 0 0 1 14,0 a 3,3 0 0 0 3,3 h 15 v 1 a 3,3 0 0 0 3,3 v -7 h -18 a 10,10 0 0 0 -20,0 h -20 z" />
  </g>
  <g id="g1051" fill="#757575">
    <path style="stroke-width:1.4" sodipodi:nodetypes="ccccccccccc" inkscape:connector-curvature="0" d="m 34.7,39.7 h 5.6 v 5.6 h -5.6 v -5.6 m -0.7,-0.7 v 7 h 7 v -7 z" id="rect2540" />
    <rect style="stroke-width:0.880831" y="40" x="43" height="5" width="45" id="rect2520" />
    <rect style="stroke-width:0.798706" id="rect2532" width="37" height="5" x="43" y="51" />
    <rect style="stroke-width:0.880831" y="62" x="43" height="5" width="45" id="rect2534" />
    <rect style="stroke-width:0.928477" id="rect2536" width="50" height="5" x="43" y="73" />
    <rect style="stroke-width:0.928477" y="84" x="43" height="5" width="23.275862" id="rect2538" />
    <path id="path2544" d="m 34.7,50.7 h 5.6 v 5.6 h -5.6 v -5.6 m -0.7,-0.7 v 7 h 7 v -7 z" inkscape:connector-curvature="0" sodipodi:nodetypes="ccccccccccc" style="stroke-width:1.4" />
    <path style="stroke-width:1.4" sodipodi:nodetypes="ccccccccccc" inkscape:connector-curvature="0" d="m 34.7,61.7 h 5.6 v 5.6 h -5.6 v -5.6 m -0.7,-0.7 v 7 h 7 v -7 z" id="path2546" />
    <path id="path2548" d="m 34.7,72.7 h 5.6 v 5.6 h -5.6 v -5.6 m -0.7,-0.7 v 7 h 7 v -7 z" inkscape:connector-curvature="0" sodipodi:nodetypes="ccccccccccc" style="stroke-width:1.4" />
  </g>
  <mask id="circleMask">
    <rect id="rect2487" width="56" height="26" x="36" y="2" fill="white" />
    <circle id="circle2489" cx="64" cy="9" r="4" fill="black" />
  </mask>
</svg>
