<?xml version="1.0" encoding="UTF-8" standalone="no"?>
<svg xmlns:dc="http://purl.org/dc/elements/1.1/" xmlns:cc="http://creativecommons.org/ns#" xmlns:rdf="http://www.w3.org/1999/02/22-rdf-syntax-ns#" xmlns:svg="http://www.w3.org/2000/svg" xmlns="http://www.w3.org/2000/svg" xmlns:sodipodi="http://sodipodi.sourceforge.net/DTD/sodipodi-0.dtd" xmlns:inkscape="http://www.inkscape.org/namespaces/inkscape" id="svg944" inkscape:version="1.0rc1 (09960d6f05, 2020-04-09)" sodipodi:docname="Door.svg" version="1.1" viewBox="0 0 128 128" enable-background="new 0 0 128 128">
  <metadata id="metadata901">
    <rdf:RDF>
      <cc:Work rdf:about="">
        <dc:format>image/svg+xml</dc:format>
        <dc:type rdf:resource="http://purl.org/dc/dcmitype/StillImage" />
        <dc:title></dc:title>
      </cc:Work>
    </rdf:RDF>
  </metadata>
  <defs id="defs912">
    <linearGradient spreadMethod="pad" id="windowBottom" x1="64" x2="64" y1="22" y2="58" gradientUnits="userSpaceOnUse">
      <stop stop-color="#6c6c6c" offset="0" id="stop879" stop-opacity="1" />
      <stop stop-color="#b1c2d2" offset="1" id="stop881" stop-opacity="1" />
    </linearGradient>
    <linearGradient gradientUnits="userSpaceOnUse" y2="-10" y1="96" x2="64" x1="64" id="a" spreadMethod="pad">
      <stop id="stop123" offset="0" stop-color="#5d3527" stop-opacity="1" />
      <stop id="stop125" offset="1" stop-color="#ae8272" stop-opacity="1" />
    </linearGradient>
    <linearGradient gradientUnits="userSpaceOnUse" y2="58" y1="22" x2="64" x1="64" id="windowTop" spreadMethod="pad">
      <stop id="upper" offset="0" stop-color="#6c77a5" stop-opacity="1" />
      <stop id="lower" offset="1" stop-color="#b1c2d2" stop-opacity="1" />
    </linearGradient>
  </defs>
  <sodipodi:namedview inkscape:pagecheckerboard="true" inkscape:current-layer="svg944" inkscape:document-rotation="0" inkscape:window-maximized="1" inkscape:zoom="8" inkscape:guide-bbox="true" showguides="true" showgrid="true" id="namedview148" inkscape:window-height="1027" inkscape:window-width="1920" inkscape:pageshadow="2" inkscape:pageopacity="0" guidetolerance="10" gridtolerance="10" objecttolerance="10" borderopacity="1" bordercolor="#666666" pagecolor="#ffffff" inkscape:cx="92.594507" inkscape:cy="62.290899" inkscape:window-x="1912" inkscape:window-y="-8">
    <inkscape:grid originy="0" originx="0" dotted="false" id="grid873" type="xygrid" />
  </sodipodi:namedview>
  <polygon id="polygon121" fill="#2c1d1d" points="100,4 28,4 28,124 100,124" />
  <polygon fill="url(#a)" id="polygon128" points="94,124 34,124 34,10 94,10" />
  <path opacity="0.2" fill="#424242" id="path130" d="m 92,12 v 110 h -56 v -110 h 56 m 2,-2 h -60 v 114 h 60 v -114 z" />
  <polygon fill="url(#windowTop)" points="82,22 82,58 46,58 46,22 " id="polygon4912" />
  <path opacity="0.5" fill="#424242" d="m 82,22 v 36 h -36 v -36 h 36 m 2,-2 h -40 v 40 h 40 v -40 z" id="path4662" />
  <path fill="#ac9132" id="path134" d="m 50,70 h -10 c -1.38,0 -2.5,-1.12 -2.5,-2.5 0,-1.38 1.12,-2.5 2.5,-2.5 h 10 c 1.38,0 2.5,1.12 2.5,2.5 0,1.38 -1.12,2.5 -2.5,2.5 z" />
  <path opacity="0.2" id="path142" fill="#160909" d="m 98,6 v 116 h -68 v -116 h 68 m 2,-2 h -72 v 120 h 72 v -120 z " />
  <polygon fill="url(#windowBottom)" points="82,77 82,103 46,103 46,77" id="polygon4912-3" />
  <path fill="#424242" opacity="0.5" d="m 82,77 v 26 h -36 v -26 h 36 m 2,-2 h -40 v 30 h 40 v -30 z" id="path4662-4" />
</svg>
