<?xml version="1.0" encoding="utf-8" standalone="no"?>
<svg xmlns:dc="http://purl.org/dc/elements/1.1/" xmlns:cc="http://creativecommons.org/ns#" xmlns:rdf="http://www.w3.org/1999/02/22-rdf-syntax-ns#" xmlns:svg="http://www.w3.org/2000/svg" xmlns="http://www.w3.org/2000/svg" xmlns:xlink="http://www.w3.org/1999/xlink" xmlns:sodipodi="http://sodipodi.sourceforge.net/DTD/sodipodi-0.dtd" xmlns:inkscape="http://www.inkscape.org/namespaces/inkscape" inkscape:version="1.0rc1 (09960d6f05, 2020-04-09)" sodipodi:docname="School.svg" id="svg1347" version="1.1" viewBox="0 0 128 128" enable-background="new 0 0 128 128">
  <metadata id="metadata1351">
    <rdf:RDF>
      <cc:Work rdf:about="">
        <dc:format>image/svg+xml</dc:format>
        <dc:type rdf:resource="http://purl.org/dc/dcmitype/StillImage" />
        <dc:title></dc:title>
      </cc:Work>
    </rdf:RDF>
  </metadata>
  <sodipodi:namedview inkscape:current-layer="svg1347" inkscape:window-maximized="1" inkscape:window-y="-8" inkscape:window-x="1912" inkscape:cy="42.715225" inkscape:cx="58.422188" inkscape:zoom="5.6568543" inkscape:snap-center="true" inkscape:snap-object-midpoints="true" inkscape:guide-bbox="true" showguides="true" inkscape:snap-midpoints="true" inkscape:snap-intersection-paths="true" inkscape:object-paths="true" inkscape:snap-smooth-nodes="true" showgrid="true" id="namedview1349" inkscape:window-height="1027" inkscape:window-width="1920" inkscape:pageshadow="2" inkscape:pageopacity="0" guidetolerance="10" gridtolerance="10" objecttolerance="10" borderopacity="1" bordercolor="#666666" pagecolor="#ffffff">
    <inkscape:grid id="grid1916" type="xygrid" />
    <sodipodi:guide inkscape:color="rgb(0,0,255)" inkscape:locked="false" inkscape:label="" id="guide2324" orientation="0.70710678,0.70710678" position="64,88" />
    <sodipodi:guide inkscape:color="rgb(0,0,255)" inkscape:locked="false" inkscape:label="" id="guide2328" orientation="-0.70710678,0.70710678" position="64,88" />
  </sodipodi:namedview>
  <radialGradient gradientUnits="userSpaceOnUse" r="80.076" cy="41.25" cx="63.25" id="g">
    <stop style="stop-color:#e4885b" id="stop1123" offset="0" stop-color="#FFEE58" />
    <stop style="stop-color:#d66839" id="stop1125" offset=".053" stop-color="#FFEE54" />
    <stop style="stop-color:#dc6d5b" id="stop1127" offset=".3561" stop-color="#FFEC42" />
    <stop style="stop-color:#dc7e59" id="stop1129" offset=".571" stop-color="#FFEB3B" />
    <stop style="stop-color:#d15933" id="stop1131" offset="1" stop-color="#FBC02D" />
  </radialGradient>
  <rect style="fill:#e58f77" id="rect1134" fill="url(#g)" height="76" width="112" y="40" x="8" />
  <linearGradient xlink:href="#d" gradientUnits="userSpaceOnUse" y2="35.247002" y1="119.25" x2="64" x1="64" id="f">
    <stop id="stop1136" offset="0" stop-color="#FFCC80" />
    <stop id="stop1138" offset=".0161" stop-opacity=".9839" stop-color="#FFCC80" />
    <stop id="stop1140" offset="1" stop-opacity="0" stop-color="#FFCC80" />
  </linearGradient>
  <rect id="rect1143" fill="url(#f)" height="76" width="112" y="40" x="8" />
  <linearGradient spreadMethod="pad" gradientUnits="userSpaceOnUse" y2="78" y1="78" x2="20.222" x1="46.215" id="e">
    <stop id="stop1145" offset="0" stop-color="#FFCC80" />
    <stop id="stop1147" offset=".0161" stop-opacity=".9839" stop-color="#FFCC80" />
    <stop id="stop1149" offset="1" stop-opacity="0" stop-color="#FFCC80" />
  </linearGradient>
  <rect style="opacity:0.499" id="rect1152" opacity=".5" fill="url(#e)" height="76" width="35.06" y="40" x="8" />
  <linearGradient spreadMethod="pad" gradientUnits="userSpaceOnUse" gradientTransform="matrix(-1,0,0,1,177.33,0)" y2="78" y1="78" x2="69.554001" x1="95.545998" id="d">
    <stop style="stop-color:#ffc180" id="stop1154" offset="0" stop-color="#FFCC80" />
    <stop id="stop1156" offset=".0161" stop-opacity=".9839" stop-color="#FFCC80" />
    <stop id="stop1158" offset="1" stop-opacity="0" stop-color="#FFCC80" />
  </linearGradient>
  <polygon id="polygon1161" opacity=".5" fill="url(#d)" points="84.94 116 120 116 120 40 84.94 40" />
  <g id="g1165" opacity="0.20">
    <path inkscape:connector-curvature="0" id="path1163" fill="#424242" d="m 117,43 v 76 h 3 c 0.55,0 1,0.45 1,1 v 1 h -114 v -1 c 0,-0.55 0.45,-1 1,-1 h 3 v -76 h 106 m 3,-3 h -112 v 76 c -2.21,0 -4,1.79 -4,4 v 4 h 120 v -4 c 0,-2.21 -1.79,-4 -4,-4 z" />
  </g>
  <radialGradient gradientUnits="userSpaceOnUse" gradientTransform="matrix(1.0287e-13 1 -1.8835 1.9375e-13 85.882 -52.001)" r="38.375" cy="11.75" cx="63.751" id="c">
    <stop style="stop-color:#f46436" id="stop1167" offset="0" stop-color="#F44336" />
    <stop style="stop-color:#f06336" id="stop1169" offset=".3423" stop-color="#F04036" />
    <stop style="stop-color:#e54f35" id="stop1171" offset=".6613" stop-color="#E53935" />
    <stop style="stop-color:#d3472f" id="stop1173" offset="1" stop-color="#D32F2F" />
  </radialGradient>
  <path id="path1176" fill="url(#c)" d="M121.73,44H6.27c-1.2,0-2.13-1.05-1.98-2.25L11.22,15c0.46-1.76,2.05-3,3.87-3h97.81 c1.82,0,3.41,1.23,3.87,3l6.94,26.76C123.87,42.95,122.94,44,121.73,44z" />
  <g id="g1180" opacity="0.20">
    <path inkscape:connector-curvature="0" fill="#424242" id="path1178" d="m 112.91,15 c 0.46,0 0.85,0.31 0.97,0.75 l 6.54,25.25 h -112.84 l 6.55,-25.25 c 0.11,-0.44 0.51,-0.75 0.97,-0.75 h 97.81 m 0,-3 h -97.82 c -1.82,0 -3.41,1.23 -3.87,3 l -6.94,26.75 c -0.15,1.2 0.78,2.25 1.99,2.25 h 115.47 c 1.2,0 2.13,-1.05 1.98,-2.25 l -6.94,-26.75 c -0.46,-1.77 -2.05,-3 -3.87,-3 z" />
  </g>
  <defs id="defs1183">
    <path d="m123.72 41.75-6.94-26.75c-0.46-1.76-2.05-3-3.87-3h-97.82c-1.82 0-3.41 1.23-3.87 3l-6.94 26.75c-0.15 1.2 0.78 2.25 1.99 2.25h1.73v72h112v-72h1.73c1.21 0 2.14-1.05 1.99-2.25z" id="b" />
  </defs>
  <clipPath id="clipPath1187">
    <use id="use1185" xlink:href="#b" />
  </clipPath>
  <defs id="defs1190">
    <rect height="76" width="112" y="40" x="8" id="a" />
  </defs>
  <clipPath id="clipPath1194">
    <use id="use1192" xlink:href="#a" />
  </clipPath>
  <radialGradient xlink:href="#c" gradientUnits="userSpaceOnUse" r="118.31" cy="1.25" cx="64" id="j">
    <stop style="stop-color:#ddb398" id="stop1196" offset="0" stop-color="#FFF176" />
    <stop style="stop-color:#ffaf72" id="stop1198" offset=".0243" stop-color="#FFF172" />
    <stop style="stop-color:#ebbc98" id="stop1200" offset=".2465" stop-color="#FFEE54" />
    <stop style="stop-color:#ffc58e" id="stop1202" offset=".4366" stop-color="#FFEC42" />
    <stop style="stop-color:#ffca94" id="stop1204" offset=".571" stop-color="#FFEB3B" />
    <stop style="stop-color:#eba364" id="stop1206" offset="1" stop-color="#FDD835" />
  </radialGradient>
  <polygon id="polygon1209" fill="url(#j)" points="64 4 40 28 40 116 88 116 88 28" />
  <rect id="rect1211" fill="#4FC3F7" height="20" width="14" y="96" x="57" />
  <g id="g1217" fill="#eee">
    <rect id="rect1213" height="20" width="2" y="96" x="56" />
    <rect id="rect1215" height="20" width="2" y="96" x="70" />
  </g>
  <rect id="rect1219" fill="#4FC3F7" height="20" width="9.9" y="51" x="21.22" />
  <path id="path1221" fill="#eee" d="m32 50h-12v22h12v-22zm-1.94 20h-8v-8h8v8zm0-10h-8v-8h8v8z" />
  <path id="path1223" fill="#eee" d="m33 72h-14c-0.28 0-0.5-0.22-0.5-0.5v-1c0-0.28 0.22-0.5 0.5-0.5h14c0.28 0 0.5 0.22 0.5 0.5v1c0 0.28-0.22 0.5-0.5 0.5z" />
  <path id="path1225" fill="#eee" d="m33 52h-14c-0.28 0-0.5-0.22-0.5-0.5v-1c0-0.28 0.22-0.5 0.5-0.5h14c0.28 0 0.5 0.22 0.5 0.5v1c0 0.28-0.22 0.5-0.5 0.5z" />
  <rect id="rect1227" fill="#4FC3F7" height="20" width="9.9" y="61" x="46.72" />
  <path id="path1229" fill="#eee" d="m57.5 60h-12v22h12v-22zm-1.94 20h-8v-8h8v8zm0-10h-8v-8h8v8z" />
  <path id="path1231" fill="#eee" d="m58.5 82h-14c-0.28 0-0.5-0.22-0.5-0.5v-1c0-0.28 0.22-0.5 0.5-0.5h14c0.28 0 0.5 0.22 0.5 0.5v1c0 0.28-0.22 0.5-0.5 0.5z" />
  <path id="path1233" fill="#eee" d="m58.5 62h-14c-0.28 0-0.5-0.22-0.5-0.5v-1c0-0.28 0.22-0.5 0.5-0.5h14c0.28 0 0.5 0.22 0.5 0.5v1c0 0.28-0.22 0.5-0.5 0.5z" />
  <rect id="rect1235" fill="#4fc3f7" height="20" width="9.8999996" y="61" x="71.720001" />
  <path inkscape:connector-curvature="0" id="path1237" fill="#eee" d="m 82.5,60 h -12 v 22 h 12 z m -1.94,20 h -8 v -8 h 8 z m 0,-10 h -8 v -8 h 8 z" />
  <path inkscape:connector-curvature="0" id="path1239" fill="#eee" d="m 83.5,82 h -14 c -0.28,0 -0.5,-0.22 -0.5,-0.5 v -1 c 0,-0.28 0.22,-0.5 0.5,-0.5 h 14 c 0.28,0 0.5,0.22 0.5,0.5 v 1 c 0,0.28 -0.22,0.5 -0.5,0.5 z" />
  <path inkscape:connector-curvature="0" id="path1241" fill="#eee" d="m 83.5,62 h -14 c -0.28,0 -0.5,-0.22 -0.5,-0.5 v -1 c 0,-0.28 0.22,-0.5 0.5,-0.5 h 14 c 0.28,0 0.5,0.22 0.5,0.5 v 1 c 0,0.28 -0.22,0.5 -0.5,0.5 z" />
  <rect id="rect1243" fill="#4FC3F7" height="20" width="9.9" y="81" x="21.22" />
  <path id="path1245" fill="#eee" d="m32 80h-12v22h12v-22zm-1.94 20h-8v-8h8v8zm0-10h-8v-8h8v8z" />
  <path id="path1247" fill="#eee" d="m33 102h-14c-0.28 0-0.5-0.22-0.5-0.5v-1c0-0.28 0.22-0.5 0.5-0.5h14c0.28 0 0.5 0.22 0.5 0.5v1c0 0.28-0.22 0.5-0.5 0.5z" />
  <path id="path1249" fill="#eee" d="m33 82h-14c-0.28 0-0.5-0.22-0.5-0.5v-1c0-0.28 0.22-0.5 0.5-0.5h14c0.28 0 0.5 0.22 0.5 0.5v1c0 0.28-0.22 0.5-0.5 0.5z" />
  <rect id="rect1251" fill="#4FC3F7" height="20" width="9.9" y="51" x="97.26" />
  <path id="path1253" fill="#eee" d="m108.04 50h-12v22h12v-22zm-1.94 20h-8v-8h8v8zm0-10h-8v-8h8v8z" />
  <path id="path1255" fill="#eee" d="m109.04 72h-14c-0.28 0-0.5-0.22-0.5-0.5v-1c0-0.28 0.22-0.5 0.5-0.5h14c0.28 0 0.5 0.22 0.5 0.5v1c0 0.28-0.22 0.5-0.5 0.5z" />
  <path id="path1257" fill="#eee" d="m109.04 52h-14c-0.28 0-0.5-0.22-0.5-0.5v-1c0-0.28 0.22-0.5 0.5-0.5h14c0.28 0 0.5 0.22 0.5 0.5v1c0 0.28-0.22 0.5-0.5 0.5z" />
  <rect id="rect1259" fill="#4FC3F7" height="20" width="9.9" y="81" x="97.26" />
  <path id="path1261" fill="#eee" d="m108.04 80h-12v22h12v-22zm-1.94 20h-8v-8h8v8zm0-10h-8v-8h8v8z" />
  <path id="path1263" fill="#eee" d="m109.04 102h-14c-0.28 0-0.5-0.22-0.5-0.5v-1c0-0.28 0.22-0.5 0.5-0.5h14c0.28 0 0.5 0.22 0.5 0.5v1c0 0.28-0.22 0.5-0.5 0.5z" />
  <path id="path1265" fill="#eee" d="m109.04 82h-14c-0.28 0-0.5-0.22-0.5-0.5v-1c0-0.28 0.22-0.5 0.5-0.5h14c0.28 0 0.5 0.22 0.5 0.5v1c0 0.28-0.22 0.5-0.5 0.5z" />
  <path inkscape:connector-curvature="0" id="path1267" fill="#e0e0e0" d="m 64,55.004916 c -8.27,0 -15,-6.73 -15,-15 c 0,-8.27 6.73,-15 15,-15 c 8.27,0 15,6.73 15,15 c 0,8.28 -6.73,15 -15,15 z" />
  <path id="path1269" fill="#aaa19f" d="m 64,26 c 7.73,0 14,6.27 14,14 c 0,7.73 -6.27,14 -14,14 c -7.73,0 -14,-6.27 -14,-14 c 0,-7.73 6.27,-14 14,-14 m 0,-2 c -8.82,0 -16,7.18 -16,16 c 0,8.82 7.18,16 16,16 c 8.82,0 16,-7.18 16,-16 c 0,-8.82 -7.18,-16 -16,-16 z" />
  <path inkscape:connector-curvature="0" id="path1271" fill="#eee" d="m 77,40 c 0,7.18 -5.82,13 -13,13 c -7.18,0 -13,-5.82 -13,-13 c 0,-7.18 5.82,-13 13,-13 c 7.18,-0.01 13,5.81 13,13 z" />
  <g id="g1289" fill="#9e9e9e">
    <path inkscape:connector-curvature="0" id="path1273" d="m 65,31 c 0,0.55 -0.45,1 -1,1 c -0.55,0 -1,-0.45 -1,-1 c 0,-0.55 0.45,-1 1,-1 c 0.56,0 1,0.45 1,1 z" />
    <path inkscape:connector-curvature="0" id="path1275" d="m 71.068961,34.346039 c -0.39,0.39 -1.02,0.39 -1.41,0 c -0.39,-0.39 -0.39,-1.03 0,-1.42 c 0.39,-0.39 1.02,-0.39 1.41,0 c 0.39,0.39 0.39,1.03 0,1.42 z" />
    <path inkscape:connector-curvature="0" id="path1277" d="m 73,41 c -0.55,0 -1,-0.45 -1,-1 c 0,-0.55 0.45,-1 1,-1 c 0.55,0 1,0.45 1,1 c 0,0.55 -0.45,1 -1,1 z" />
    <path inkscape:connector-curvature="0" id="path1279" d="m 69.653961,47.073961 c -0.39,-0.39 -0.39,-1.02 0,-1.42 c 0.39,-0.39 1.03,-0.39 1.42,0 c 0.39,0.39 0.39,1.03 0,1.42 c -0.4,0.39 -1.03,0.39 -1.42,0 z" />
    <path inkscape:connector-curvature="0" id="path1281" d="m 63,49 c 0,-0.55 0.45,-1 1,-1 c 0.55,0 1,0.45 1,1 c 0,0.55 -0.45,1 -1,1 c -0.56,0 -1.01,-0.45 -1,-1 z" />
    <path inkscape:connector-curvature="0" id="path1283" d="m 56.931039,45.658961 c 0.39,-0.39 1.02,-0.39 1.41,0 c 0.39,0.39 0.39,1.02 0,1.41 c -0.39,0.39 -1.03,0.39 -1.41,0 c -0.39,-0.39 -0.39,-1.02 0,-1.41 z" />
    <path inkscape:connector-curvature="0" id="path1285" d="m 55,39 c 0.55,0 1,0.44 1,1 c 0,0.55 -0.45,1 -1,1 c -0.55,0 -1,-0.45 -1,-1 c 0,-0.55 0.45,-1 1,-1 z" />
    <path inkscape:connector-curvature="0" id="path1287" d="m 58.346039,32.926039 c 0.39,0.39 0.39,1.02 0,1.42 c -0.39,0.39 -1.03,0.39 -1.42,0 c -0.39,-0.39 -0.39,-1.02 0,-1.42 c 0.39,-0.39 1.03,-0.39 1.42,0 z" />
  </g>
  <g id="g1297" fill="#616161">
    <circle id="circle1291" r="2" cy="40" cx="64" />
    <path inkscape:connector-curvature="0" id="path1293" d="m 64,40 h -1.25 v -10 c 0,-1 0.625,-1.5 1.25,-1.5 c 0.625,0 1.25,0.5 1.25,1.5 v 10 z" />
    <path d="m 64,40 l 0.883884,0.883883 l -3.535534,3.535534 c -0.707106,0.707107 -1.502601,0.61872 -1.944544,0.176777 c -0.441942,-0.441941 -0.530329,-1.237437 0.176778,-1.944544 l 3.535533,-3.535534 z" id="path1920" inkscape:connector-curvature="0" />
  </g>
  <radialGradient gradientUnits="userSpaceOnUse" gradientTransform="matrix(8.9895e-11 1 1.1617 -1.0443e-10 -96.872 78.095)" r="21.378" cy="102.96" cx="24.869" id="i">
    <stop id="stop1299" offset="0" stop-color="#9CCC65" />
    <stop id="stop1301" offset=".2538" stop-color="#96C760" />
    <stop id="stop1303" offset=".5994" stop-color="#84B851" />
    <stop id="stop1305" offset=".9952" stop-color="#689F38" />
  </radialGradient>
  <path id="path1308" fill="url(#i)" d="m8.05 118.63c-1.13-1.36-1.67-3.08-1.53-4.86 0.22-2.89 2.36-5.4 5.21-6.09 0.52-0.13 1.06-0.19 1.59-0.19 0.42 0 0.85 0.04 1.28 0.12 0.06 0.01 0.12 0.02 0.19 0.02 0.44 0 0.83-0.29 0.96-0.72 0.84-2.89 3.53-4.91 6.54-4.91 2.37 0 4.54 1.21 5.79 3.22 0.19 0.3 0.51 0.47 0.85 0.47 0.08 0 0.16-0.01 0.24-0.03 0.53-0.13 1.08-0.2 1.62-0.2 0.41 0 0.83 0.04 1.24 0.11 2.92 0.53 5.25 3 5.53 5.87 0.09 0.93-0.08 1.85-0.5 2.58-0.22 0.4-0.18 0.94 0.15 1.26 0.65 0.65 0.68 1.76 0.37 2.52-0.1 0.25-0.4 0.82-0.91 0.82h-28.62z" />
  <path id="path1310" fill="#689F38" d="m22.28 103c2.02 0 3.87 1.03 4.94 2.75 0.37 0.6 1.02 0.94 1.7 0.94 0.16 0 0.32-0.02 0.48-0.06 0.46-0.11 0.92-0.17 1.39-0.17 0.35 0 0.71 0.03 1.06 0.1 2.49 0.45 4.48 2.55 4.72 4.98 0.07 0.73-0.06 1.44-0.37 2-0.57 1.01-0.19 1.95 0.3 2.44 0.2 0.2 0.3 0.54 0.28 0.92-0.02 0.37-0.15 0.62-0.23 0.72h-28c-0.77-1.1-1.13-2.42-1.03-3.79 0.19-2.47 2.02-4.6 4.45-5.19 0.45-0.11 0.9-0.16 1.35-0.16 0.36 0 0.73 0.03 1.09 0.1 0.13 0.02 0.25 0.04 0.37 0.04 0.87 0 1.67-0.57 1.92-1.44 0.72-2.46 3.02-4.18 5.58-4.18m0-2c-3.56 0-6.56 2.38-7.5 5.62-0.47-0.09-0.96-0.14-1.46-0.14-0.59 0-1.2 0.07-1.83 0.22-3.27 0.8-5.71 3.63-5.97 6.98-0.18 2.3 0.65 4.41 2.08 5.94h29.07c1.99 0 2.91-3.39 1.24-5.05-0.01-0.01 0.84-1.24 0.64-3.22-0.33-3.38-3.01-6.15-6.35-6.76-0.48-0.09-0.95-0.13-1.41-0.13-0.64 0-1.27 0.08-1.86 0.23-1.38-2.21-3.84-3.69-6.65-3.69z" />
  <path id="path1312" stroke-width="2" stroke-miterlimit="10" stroke-linejoin="round" stroke-linecap="round" stroke="#689F38" fill="none" d="m29.97 109.79s0.07-2.14-1.65-4.43" />
  <path id="path1314" stroke-width="2" stroke-miterlimit="10" stroke-linejoin="round" stroke-linecap="round" stroke="#689F38" fill="none" d="m14.91 107.52c2.02 0.03 4 1.62 4.3 3.57" />
  <path id="path1316" stroke-width="2" stroke-miterlimit="10" stroke-linejoin="round" stroke-linecap="round" stroke="#689F38" fill="none" d="m16.99 111.98c1.78-0.81 4.17-0.68 6.01 0.26" />
  <radialGradient gradientUnits="userSpaceOnUse" gradientTransform="matrix(1.0287e-13 1 -1.1617 1.195e-13 223.49 -3.0721)" r="21.378" cy="101.96" cx="105.04" id="h">
    <stop id="stop1318" offset="0" stop-color="#9CCC65" />
    <stop id="stop1320" offset=".2538" stop-color="#96C760" />
    <stop id="stop1322" offset=".5994" stop-color="#84B851" />
    <stop id="stop1324" offset=".9952" stop-color="#689F38" />
  </radialGradient>
  <path id="path1327" fill="url(#h)" d="m91.11 117.63c-0.52 0-0.81-0.57-0.91-0.82-0.31-0.75-0.28-1.87 0.38-2.53 0.32-0.32 0.36-0.86 0.14-1.25-0.41-0.73-0.59-1.65-0.5-2.58 0.28-2.87 2.61-5.34 5.53-5.87 0.41-0.07 0.83-0.11 1.24-0.11 0.54 0 1.09 0.07 1.62 0.2 0.08 0.02 0.16 0.03 0.24 0.03 0.34 0 0.66-0.17 0.85-0.47 1.26-2.02 3.42-3.22 5.79-3.22 3.01 0 5.7 2.02 6.54 4.91 0.13 0.43 0.52 0.72 0.96 0.72 0.06 0 0.12-0.01 0.19-0.02 0.43-0.08 0.86-0.12 1.28-0.12 0.53 0 1.07 0.06 1.59 0.19 2.85 0.69 4.99 3.2 5.21 6.09 0.14 1.79-0.41 3.5-1.53 4.86h-28.62z" />
  <path id="path1329" fill="#689F38" d="m105.49 102c2.57 0 4.86 1.72 5.58 4.19 0.25 0.87 1.05 1.44 1.92 1.44 0.12 0 0.25-0.01 0.37-0.04 0.36-0.07 0.73-0.1 1.09-0.1 0.45 0 0.91 0.06 1.35 0.16 2.43 0.59 4.26 2.73 4.45 5.19 0.1 1.37-0.26 2.69-1.03 3.79h-28c-0.08-0.11-0.2-0.36-0.23-0.72-0.02-0.38 0.08-0.72 0.27-0.92 0.5-0.49 0.88-1.43 0.31-2.45-0.31-0.56-0.44-1.27-0.37-2 0.24-2.44 2.22-4.53 4.72-4.98 0.35-0.06 0.71-0.1 1.06-0.1 0.47 0 0.93 0.06 1.39 0.17 0.16 0.04 0.32 0.06 0.48 0.06 0.68 0 1.33-0.35 1.7-0.94 1.07-1.72 2.92-2.75 4.94-2.75m0-2c-2.8 0-5.26 1.48-6.64 3.7-0.6-0.15-1.22-0.23-1.86-0.23-0.46 0-0.93 0.04-1.41 0.13-3.35 0.6-6.02 3.37-6.35 6.76-0.2 1.99 0.66 3.21 0.64 3.22-1.67 1.67-0.75 5.05 1.24 5.05h29.07c1.43-1.53 2.25-3.64 2.08-5.94-0.26-3.35-2.7-6.19-5.97-6.98-0.62-0.15-1.23-0.22-1.83-0.22-0.5 0-0.99 0.05-1.46 0.14-0.95-3.25-3.95-5.63-7.51-5.63z" />
  <path id="path1331" stroke-width="2" stroke-miterlimit="10" stroke-linejoin="round" stroke-linecap="round" stroke="#689F38" fill="none" d="m97.81 108.79s-0.07-2.14 1.65-4.43" />
  <path id="path1333" stroke-width="2" stroke-miterlimit="10" stroke-linejoin="round" stroke-linecap="round" stroke="#689F38" fill="none" d="m112.87 106.52c-2.02 0.03-4 1.62-4.3 3.57" />
  <path id="path1335" stroke-width="2" stroke-miterlimit="10" stroke-linejoin="round" stroke-linecap="round" stroke="#689F38" fill="none" d="m110.79 110.98c-1.78-0.81-4.17-0.68-6.01 0.26" />
  <path id="path1337" fill="#78909C" d="M124,124H4v-4c0-2.21,1.79-4,4-4h112c2.21,0,4,1.79,4,4V124z" />
  <path id="path1339" fill="#eee" d="m72.05 96h-16.1c-1.08 0-1.95-0.87-1.95-1.95v-0.1c0-1.08 0.87-1.95 1.95-1.95h16.1c1.08 0 1.95 0.87 1.95 1.95v0.1c0 1.08-0.87 1.95-1.95 1.95z" />
  <g id="g1343" opacity=".2">
    <path id="path1341" fill="#424242" d="m120 116h-0.38v3h0.38c0.55 0 1 0.45 1 1v1h-114v-1c0-0.46 0.32-0.84 0.75-0.95v-3.03c-2.09 0.14-3.75 1.86-3.75 3.98v4h120v-4c0-2.21-1.79-4-4-4z" />
  </g>
  <path id="path1345" fill="#C62828" d="m92 36c-0.51 0-1.02-0.2-1.41-0.59l-26.59-26.58-26.59 26.58c-0.78 0.78-2.05 0.78-2.83 0s-0.78-2.05 0-2.83l28-28c0.78-0.78 2.05-0.78 2.83 0l28 28c0.78 0.78 0.78 2.05 0 2.83-0.39 0.39-0.9 0.59-1.41 0.59z" />
</svg>
